<?xml version="1.0" encoding="UTF-8" standalone="no"?>
<svg width="48px" height="69px" viewBox="0 0 48 69" version="1.1" xmlns="http://www.w3.org/2000/svg" xmlns:xlink="http://www.w3.org/1999/xlink" xmlns:sketch="http://www.bohemiancoding.com/sketch/ns">
    <!-- Generator: Sketch 3.4.3 (16618) - http://www.bohemiancoding.com/sketch -->
    <desc>Created with Sketch.</desc>
    <defs></defs>
    <g id="Page-1" stroke="none" stroke-width="1" fill="none" fill-rule="evenodd" sketch:type="MSPage">
        <g id="1449964012_Location_Icon" sketch:type="MSLayerGroup" fill="#1f1f1f">
            <g id="Group" sketch:type="MSShapeGroup">
                <g id="Layer_1" transform="translate(0.085898, 0.089141)">
                    <path d="M24.0011943,0 C10.746415,0 -3.55271368e-15,10.7467285 -3.55271368e-15,24.001351 C-3.55271368e-15,41.803197 24.0011943,68.9499969 24.0011943,68.9499969 C24.0011943,68.9499969 48.0025453,41.8030402 48.0025453,24.001351 C48.0025453,10.7467285 37.2558168,0 24.0011943,0 L24.0011943,0 Z M24.0011943,34.128082 C18.407578,34.128082 13.8743065,29.5949673 13.8743065,24.0011943 C13.8743065,18.4074213 18.407578,13.8743065 24.0011943,13.8743065 C29.5948105,13.8743065 34.128082,18.4074213 34.128082,24.0011943 C34.128082,29.5949673 29.5948105,34.128082 24.0011943,34.128082 L24.0011943,34.128082 Z" id="Shape"></path>
                </g>
            </g>
        </g>
    </g>
</svg>
